<?xml version="1.0" encoding="utf-8"?>
<!-- Generator: Adobe Illustrator 23.0.1, SVG Export Plug-In . SVG Version: 6.00 Build 0)  -->
<svg version="1.1" id="Layer_1" xmlns="http://www.w3.org/2000/svg" xmlns:xlink="http://www.w3.org/1999/xlink" x="0px" y="0px"
	 viewBox="0 0 38 37" style="enable-background:new 0 0 38 37;" xml:space="preserve">
<style type="text/css">
	.st0{fill:#1B1532;}
</style>
<g>
	<path class="st0" d="M19,19.4c-5.3,0-9.7-4.4-9.7-9.7C9.3,4.4,13.7,0,19,0c1.2,0,2.3,0.2,3.4,0.6c0.7,0.3,1.4,0.6,2,1
		c2.7,1.8,4.3,4.8,4.3,8C28.7,15,24.4,19.4,19,19.4z M19,3c-3.7,0-6.7,3-6.7,6.7c0,3.7,3,6.7,6.7,6.7c3.7,0,6.7-3,6.7-6.7
		c0-2.2-1.1-4.3-3-5.6c-0.4-0.3-0.9-0.5-1.4-0.7C20.6,3.1,19.8,3,19,3z"/>
</g>
<g>
	<g>
		<path class="st0" d="M36.5,37c-0.8,0-1.5-0.7-1.5-1.5v-5.7c0-2-1.6-3.6-3.6-3.6h-5.1c-2.2,1.5-4.7,2.3-7.3,2.3
			c-2.6,0-5.2-0.8-7.3-2.3H6.6c-2,0-3.6,1.6-3.6,3.6v5.7C3,36.3,2.3,37,1.5,37S0,36.3,0,35.5v-5.7c0-3.6,3-6.6,6.6-6.6h5.6
			c0.3,0,0.6,0.1,0.9,0.3c1.7,1.3,3.8,2,5.9,2c2.2,0,4.2-0.7,5.9-2c0.3-0.2,0.6-0.3,0.9-0.3h5.6c3.6,0,6.6,3,6.6,6.6v5.7
			C38,36.3,37.3,37,36.5,37z"/>
	</g>
</g>
</svg>
