<svg xmlns="http://www.w3.org/2000/svg"
aria-label="Hollow Hourglass" role="img"
viewBox="0 0 15.594538 23.392889">
<path d="m 15.596868,6.056607 -4.721582,5.651269 4.721582,5.65127 z" style="fill:#333333;fill-opacity:1;stroke:none;" />
<path d="M 0.00245103,6.0676555 4.7240332,11.718925 0.00245095,17.370195 Z" style="fill:#333333;fill-opacity:1;stroke:none;" />
<path d="M 4.5294906e-7,0 V 5.8599632 C -5.6457705e-4,7.1889946 0.5275251,8.4642643 1.4668044,9.4045889 v 0.00186 l 2.2990201,2.2899561 -2.3008332,2.291768 -0.00181,0.0019 C 0.53189329,14.933825 0.00706955,16.205129 3.3529491e-6,17.531025 v 0.0019 5.859963 H 15.594538 v -5.859963 -0.0019 c -0.0071,-1.325896 -0.53189,-2.5972 -1.463178,-3.540999 l -0.0019,-0.0019 -2.30079,-2.291768 2.299021,-2.2899537 0.0019,-0.00186 C 15.069253,8.463837 15.595583,7.1878342 15.594538,5.8581501 V 0 Z M 1.1132485,1.1132479 H 14.48129 v 4.7467153 c 8.13e-4,1.0345796 -0.409293,2.0257714 -1.140445,2.7577365 l -3.091348,3.0786563 3.093162,3.078656 c 0.725062,0.736698 1.133121,1.727588 1.138631,2.761363 v 4.743089 H 1.1132485 v -4.743089 -0.0036 c 0.00644,-1.032473 0.4162282,-2.021905 1.1404444,-2.757743 l 0.00363,-0.0036 3.087722,-3.07503 -3.091352,-3.0787023 C 1.5225413,7.8857346 1.1124349,6.8945428 1.1132485,5.8599632 Z" style="fill-opacity:1;stroke:none;fill:#909090" />
</svg>