<svg xmlns="http://www.w3.org/2000/svg"
viewBox="0 0 172 241.3">
<g id="fab">
<path style="fill:#0c0225;" d="M7.6,191.4H0v-12.2h7.6v-2.8c0-20.2,16.5-22.8,25.1-22.8c3.1,0,5.2,0.4,5.2,0.4v13c0,0-1.3-0.2-3.1-0.2 c-4.3,0-11.8,1.1-11.8,10v2.4h13.2v12.2H23v48.4H7.6V191.4z"/>
<path style="fill:#0c0225;" d="M77.7,201.2h2.1v-0.8c0-8.1-5.1-10.9-11.8-10.9c-8.8,0-16.9,5.9-16.9,5.9l-5.8-11c0,0,9.5-7.6,24.2-7.6 c16.2,0,25.6,8.9,25.6,24.5v38.5H80.8v-5.1c0-2.4,0.2-4.3,0.2-4.3h-0.2c0.1,0-4.7,10.9-18.7,10.9c-11,0-20.9-6.9-20.9-19.2 C41.2,202.5,67.6,201.2,77.7,201.2z M66,229.3c8.1,0,13.9-8.7,13.9-16.2v-1.4h-2.7c-7.9,0-20.5,1.1-20.5,9.7 C56.7,225.5,59.7,229.3,66,229.3z"/>
<path style="fill:#0c0225;" d="M110.9,154.1h15.3v26.5c0,3-0.2,5.2-0.2,5.2h0.2c0,0,5.4-8.9,18.5-8.9c16.7,0,27.3,13.2,27.3,32.3 c0,19.6-12,32.3-28.3,32.3c-12.8,0-18.4-9.2-18.4-9.2h-0.2c0,0,0.2,1.8,0.2,4.2v3.5h-14.5V154.1z M141.1,228.4 c8.5,0,15.5-6.9,15.5-19.1c0-11.7-6.3-19.3-15.3-19.3c-8,0-15.5,5.8-15.5,19.4C125.7,218.9,130.8,228.4,141.1,228.4z"/>
</g>
<linearGradient id="topgrad" gradientUnits="userSpaceOnUse" x1="42.0963" y1="-42.4284" x2="108.9884" y2="-42.4284" gradientTransform="matrix(0.9993 3.759350e-02 -3.759350e-02 0.9993 24.5838 67.0614)">
<stop offset="0.2014" style="stop-color:#E83C7E"/>
<stop offset="0.8238" style="stop-color:#E61255"/>
</linearGradient>
<path style="fill:url(#topgrad);" d="M126.8,35.2L67.2,55L68,32.5c0.2-5.5,3.5-10.4,8.5-12.7L136.1,0l-0.8,22.5C135.1,28,131.9,32.9,126.8,35.2z"/>
<linearGradient id="midgrad" gradientUnits="userSpaceOnUse" x1="42.0963" y1="42.691" x2="77.5643" y2="42.691" gradientTransform="matrix(0.9993 3.759350e-02 -3.759350e-02 0.9993 24.5838 67.0614)">
<stop offset="0.2014" style="stop-color:#E83C7E"/>
<stop offset="0.8238" style="stop-color:#E61255"/>
</linearGradient>
<path style="fill:url(#midgrad);" d="M92,124.9l-27.8,9.3l0.8-22.5c0.2-5.5,3.5-10.4,8.5-12.7l27.8-9.3l-0.8,22.5C100.3,117.7,97,122.6,92,124.9z"/>
<linearGradient id="botgrad" gradientUnits="userSpaceOnUse" x1="54.8403" y1="15.1829" x2="86.7743" y2="-12.5656" gradientTransform="matrix(0.9993 3.759350e-02 -3.759350e-02 0.9993 24.5838 67.0614)">
<stop offset="0.2014" style="stop-color:#E83C7E"/>
<stop offset="0.8238" style="stop-color:#E61255"/>
</linearGradient>
<path style="fill:url(#botgrad);" d="M125.4,74.7L65.7,94.6l0.8-22.5c0.2-5.5,3.5-10.4,8.5-12.7l59.6-19.9l-0.8,22.5 C133.6,67.6,130.4,72.5,125.4,74.7z"/>
</svg>
